<?xml version="1.0" encoding="utf-8"?>
<!-- Generator: Adobe Illustrator 21.1.0, SVG Export Plug-In . SVG Version: 6.00 Build 0)  -->
<svg version="1.1" id="Layer_1" xmlns="http://www.w3.org/2000/svg" xmlns:xlink="http://www.w3.org/1999/xlink" x="0px" y="0px"
	 width="800px" height="800px" viewBox="0 0 800 800" style="enable-background:new 0 0 800 800;" xml:space="preserve">
<style type="text/css">
	.st0{fill:#FFFFFF;stroke:#000000;stroke-width:13.3396;stroke-miterlimit:10;}
	.st1{fill:#68B245;}
</style>
<g>
	<circle class="st0" cx="401.3" cy="400.9" r="383"/>
	<g>
		<path class="st1" d="M411.3,300.5c-10.8,1.9-20.6,4.5-30.5,5.3c-22.7,1.9-40.2,15.5-59.2,25.4c-17.9,9.3-35.4,19.4-53.2,29
			c-15.6,8.5-32.8,3.2-41.4-12.6c-9.2-16.8-4.8-34,10.9-42.7c31.7-17.5,63.5-34.8,95.1-52.3c9.8-5.4,20.8-5.8,31.4-7.8
			c28.2-5.4,56.5-10.3,84.8-15.4c9.3-1.7,18.6-1.6,27.4,2.6c3.8,1.8,7.7,3.2,11.5,5c8.1,3.7,14.1,9.4,17.7,17.7
			c9.1,20.9,18.7,41.7,27.7,62.7c1.9,4.3,3.6,4.5,7.5,2.8c20.8-9.5,41.7-18.7,62.5-28.1c7.6-3.4,15.2-4.6,23.3-2.1
			c12.2,3.9,21.6,16.8,22.3,30.5c0.6,12.4-6.5,23.3-18.7,28.8c-31.8,14.3-63.6,28.5-95.4,42.7c-19.8,8.8-36.3,2.5-45-17.2
			c-5.1-11.6-10.3-23.1-15.9-35.6c-6,13.6-11.6,26.3-17.1,39c-8.4,19.2-16.6,38.4-25.1,57.6c-1.5,3.4-1.5,5.4,1.6,8.1
			c19.3,17,38.6,34.1,57.4,51.7c13.1,12.3,19.1,27.4,13.7,45.5c-2.4,8.2-8.7,13.8-14.4,19.6c-18.2,18.6-36.6,36.9-55,55.1
			c-7.8,7.7-17.1,12.6-28.2,13.8c-28.8,3.3-43.2-21.5-35.4-45.2c2.6-7.8,6.6-14.5,12.4-20.3c10.6-10.7,21.2-21.4,32-31.9
			c2.7-2.6,2.8-4-0.2-6.5c-8.4-7.1-16.6-14.6-24.7-22.1c-2.4-2.2-3.9-2.8-6.5-0.1c-24.6,25.8-49.4,51.5-74.1,77.3
			c-16.2,16.9-32.5,33.9-48.7,50.8c-7.4,7.7-13.9,16.3-22.8,22.4c-11.1,7.7-23.4,11.2-36.8,7.3c-17.6-5.1-26.2-24.4-19.9-44.3
			c2.3-7.4,6.2-14,11.5-19.5c28.1-29.4,56.2-58.7,84.3-88c23-24,45.5-48.4,69.1-71.7c7.9-7.8,11.9-16.9,16-26.4
			c15.2-34.9,30.4-69.8,45.6-104.7C409.6,304.9,410.2,303.2,411.3,300.5z"/>
		<path class="st1" d="M554.3,181.4c0,29-23,52-51.8,52c-28.7,0-51.7-23.4-51.6-52.3c0.1-28.5,23.2-51.6,51.7-51.7
			C531.2,129.2,554.3,152.4,554.3,181.4z"/>
	</g>
</g>
</svg>
