<?xml version="1.0" encoding="utf-8"?>
<!-- Generator: Adobe Illustrator 21.1.0, SVG Export Plug-In . SVG Version: 6.00 Build 0)  -->
<svg version="1.1" id="Layer_1" xmlns="http://www.w3.org/2000/svg" xmlns:xlink="http://www.w3.org/1999/xlink" x="0px" y="0px"
	 width="800px" height="800px" viewBox="0 0 800 800" style="enable-background:new 0 0 800 800;" xml:space="preserve">
<style type="text/css">
	.st0{display:none;}
	.st1{display:inline;}
	.st2{fill:#FFFFFF;stroke:#000000;stroke-width:13.3396;stroke-miterlimit:10;}
	.st3{fill:#5D5E5E;}
	.st4{fill:#FFFFFF;stroke:#000000;stroke-width:13.4079;stroke-miterlimit:10;}
	.st5{fill:#68B245;}
</style>
<g id="Layer_1_1_" class="st0">
	<g class="st1">
		<circle class="st2" cx="401.3" cy="400.9" r="383"/>
		<g>
			<path class="st3" d="M411.3,300.5c-10.8,1.9-20.6,4.5-30.5,5.3c-22.7,1.9-40.2,15.5-59.2,25.4c-17.9,9.3-35.4,19.4-53.2,29
				c-15.6,8.5-32.8,3.2-41.4-12.6c-9.2-16.8-4.8-34,10.9-42.7c31.7-17.5,63.5-34.8,95.1-52.3c9.8-5.4,20.8-5.8,31.4-7.8
				c28.2-5.4,56.5-10.3,84.8-15.4c9.3-1.7,18.6-1.6,27.4,2.6c3.8,1.8,7.7,3.2,11.5,5c8.1,3.7,14.1,9.4,17.7,17.7
				c9.1,20.9,18.7,41.7,27.7,62.7c1.9,4.3,3.6,4.5,7.5,2.8c20.8-9.5,41.7-18.7,62.5-28.1c7.6-3.4,15.2-4.6,23.3-2.1
				c12.2,3.9,21.6,16.8,22.3,30.5c0.6,12.4-6.5,23.3-18.7,28.8c-31.8,14.3-63.6,28.5-95.4,42.7c-19.8,8.8-36.3,2.5-45-17.2
				c-5.1-11.6-10.3-23.1-15.9-35.6c-6,13.6-11.6,26.3-17.1,39c-8.4,19.2-16.6,38.4-25.1,57.6c-1.5,3.4-1.5,5.4,1.6,8.1
				c19.3,17,38.6,34.1,57.4,51.7c13.1,12.3,19.1,27.4,13.7,45.5c-2.4,8.2-8.7,13.8-14.4,19.6c-18.2,18.6-36.6,36.9-55,55.1
				c-7.8,7.7-17.1,12.6-28.2,13.8c-28.8,3.3-43.2-21.5-35.4-45.2c2.6-7.8,6.6-14.5,12.4-20.3c10.6-10.7,21.2-21.4,32-31.9
				c2.7-2.6,2.8-4-0.2-6.5c-8.4-7.1-16.6-14.6-24.7-22.1c-2.4-2.2-3.9-2.8-6.5-0.1c-24.6,25.8-49.4,51.5-74.1,77.3
				c-16.2,16.9-32.5,33.9-48.7,50.8c-7.4,7.7-13.9,16.3-22.8,22.4c-11.1,7.7-23.4,11.2-36.8,7.3c-17.6-5.1-26.2-24.4-19.9-44.3
				c2.3-7.4,6.2-14,11.5-19.5c28.1-29.4,56.2-58.7,84.3-88c23-24,45.5-48.4,69.1-71.7c7.9-7.8,11.9-16.9,16-26.4
				c15.2-34.9,30.4-69.8,45.6-104.7C409.6,304.9,410.2,303.2,411.3,300.5z"/>
			<path class="st3" d="M554.3,181.4c0,29-23,52-51.8,52c-28.7,0-51.7-23.4-51.6-52.3c0.1-28.5,23.2-51.6,51.7-51.7
				C531.2,129.2,554.3,152.4,554.3,181.4z"/>
		</g>
	</g>
</g>
<g id="Layer_2" class="st0">
	<g class="st1">
		<path class="st2" d="M401.2,18.1C190.1,18.2,18.4,189.7,18.3,400.8c-0.1,211.5,171.6,383.4,383.1,383.3
			c211.1-0.1,382.7-171.6,382.9-382.6C784.4,189.9,612.6,18,401.2,18.1z"/>
		<g>
			<path class="st3" d="M694.9,541.8c-8.2-6.6-17.6-11.3-27.7-13.8c-37.9-9.3-71.7-26.6-101.2-52.2c-40.9-35.5-86.5-63.4-136.2-84.8
				c-28-12.1-44.8-33.7-52-63.1c-2.8-11.5-4.3-23.2-4.5-35.1c-0.6-34.3,5.2-67.9,11.3-101.4c1.3-7.3,0-10-7.6-11.1
				c-25.6-3.9-51-8.5-76.5-12.9c-25.8-4.4-51.7-8.8-77.5-13.4c-5.2-0.9-8-0.5-7.9,5.9c0.3,13.7-2.5,27.2-5.6,40.4
				c-11.2,48.7-33.3,92.8-58.7,135.4c-16.5,27.5-29.5,56.4-37,87.7c-7.9,32.9,0.9,56.6,29.1,75.4c28.5,18.9,59.3,26.7,93,15.7
				c20.6-6.7,41.3-8.6,62.5-2.9c22.6,6,44.1,14.8,65,25.2c48.7,24.4,98.9,39.6,154.4,26.1c22.1-5.4,44.2,0.1,65.6,6.7
				c20.5,6.4,39.8,16.5,60.8,21.3c18.3,4.2,35.7,2.9,50.9-9.5C710.2,568.9,710.3,554,694.9,541.8z M245.8,308.5
				c4.8-9.6,10.7-18.6,16.4-27.7c16.5-26.3,29.3-54.2,38-83.9c4.1-14.1,13-5.1,19.8-5.3c8.5-0.3,5.9,5.8,5.1,10.6
				c-2.2,13.1-4.5,26.2-6.7,39.2c-4.4,24.1-5.2,48.3-4.9,72.8c0.5,39.7-18.9,51.2-54.3,33.1C241.1,338,236.8,326.5,245.8,308.5z
				 M314.5,427.3c-16.2,10.5-33.1,10.3-50.3,2.8c-3.6-1.6-7-3.6-12.3-3c18.4,16.4,18.5,31.4,0.5,46.7c-19.2,16.3-42,24.8-67,26
				c-25.3,1.2-39.7-21.9-32.4-50.5c6-23.3,30.3-38.1,59.2-36.2c10.8,0.7,21.1,3.4,32,6.6c-3.4-3.8-7.3-7.3-10.3-11.4
				c-6.5-9.1-10.6-19.3-6.1-30.3c4.4-10.7,14.8-12.8,25.1-13.6c20.9-1.7,40.9,2.4,59.4,12C336.2,388.7,337,412.6,314.5,427.3z
				 M406.3,462.2c-8.9,4.8-18.1,8.2-27.1,1.2c-8.9-6.9-12.6-16.3-9.1-27.6c0.5-1.7,0.9-3.4,1.6-6.3c-13.2,5.1-26.4,16.8-38.4,0.6
				c-6.5-8.7-3.3-23.8,5.7-33.4c8.4-9,19.9-11.5,29.1-6.4c10,5.5,13.8,14.8,11,26.8c4.1,1.6,5.4-2.6,7.7-4.1c9.2-6,18.6-9.9,29-3.6
				c9.2,5.5,12.4,16.8,9.1,29.6c-0.5,2.1-1.1,4.1-1.7,6.2c0.1,0,0.1,0,0.1-0.1C418,451,413.7,458.1,406.3,462.2z M554.5,531
				c-8.2,3.2-16.2,4.2-22.3-4c-15.5-20.9-37.5-32.6-60.5-43.1c-8.8-4.1-18-4.2-27.3-4.4c-22.8-0.4-27.6-6.6-21.8-28.3
				c0.5-2,0.6-4.1,0.8-6.1c4.3-1.3,5-6,8-8.6c6.8-6,16.4-6.2,20.4,1.5c17,32.9,50.6,40.9,80.4,54.5c7.1,3.3,15,4.8,22.3,7.7
				c7.8,3.1,13.7,8.6,13.6,17.5C568,525.9,560.9,528.5,554.5,531z M631.7,552c-2.3,5.3-9,1.2-12.8,1.4c-14.1-3-26.3-7.9-37.3-15.8
				c-4.1-3-7.8-6.5-9.4-11.4c-1.2-3.6-0.5-7.2,2.4-9.9c2.8-2.6,5.3-0.1,7.8,1c14.3,6.7,28.2,14.2,40.9,23.7
				C627.1,543.9,633.9,547,631.7,552z M664,568.3c-7.1,0.6-14.4-0.2-20.8-4.1c-3.3-2-5.6-4.8-4.7-8.9c1.1-4.9,5.2-2.6,8-2.6
				c6.4,0.2,12.9,0.8,18,1.2c7.9,2.4,20.2,1.8,19.5,7.5C683.1,569.9,671.4,567.7,664,568.3z"/>
			<path class="st3" d="M259.5,607.8H125.9c-2.3,0-4.2-1.7-4.4-4c-0.2-2.3,1.4-4.3,3.6-4.7l83.8-14.6h-83c-2.3,0-4.2-1.7-4.4-4
				c-0.2-2.3,1.4-4.3,3.6-4.7l83.8-14.6h-83.1c-2.3,0-4.2-1.7-4.4-4c-0.2-2.3,1.4-4.3,3.6-4.7l83.8-14.6h-83c-2.4,0-4.4-2-4.4-4.4
				s2-4.4,4.4-4.4h133.6c2.3,0,4.2,1.7,4.4,4c0.2,2.3-1.4,4.3-3.6,4.7l-83.8,14.6h83c2.3,0,4.2,1.7,4.4,4c0.2,2.3-1.4,4.3-3.6,4.7
				l-83.8,14.6h83.1c2.3,0,4.2,1.7,4.4,4c0.2,2.3-1.4,4.3-3.6,4.7L176.5,599h83c2.4,0,4.4,2,4.4,4.4S261.9,607.8,259.5,607.8z"/>
		</g>
	</g>
</g>
<g id="Layer_3">
	<g>
		<circle class="st4" cx="402.9" cy="403.1" r="385"/>
		<g>
			<path class="st5" d="M403.6,451.4c-8.9,7.9-4.6,17.9-4.6,26.6c-0.4,64.9-0.5,129.9-0.1,194.8c0.1,22.4-5.1,40.2-31.6,40.1
				c-27.1-0.2-30.5-19-30.4-40.9c0.3-119.5,0.1-239.1,0.1-358.6c0-10.2,0-20.4,0-30.9c-15.2,0.9-10.7,10.9-10.7,17
				c-0.4,40.5-0.5,80.9-0.1,121.4c0.2,15.8-2.8,29.5-21.2,30.2c-19.6,0.7-24.7-12.6-24.6-30c0.4-49.9-0.2-99.8,0.2-149.7
				c0.3-42,25.1-69.7,66.9-71.9c36.6-1.9,73.5-1.8,110.1,0c42.5,2.2,66.7,28.7,67.2,71.4c0.6,48,0.1,96,0.2,144
				c0,17.2,1.8,37-23.4,36.1c-22-0.8-22.4-18.6-22.3-35.3c0.1-43.9,0-87.8,0-139.2c-11.7,14.7-8.9,24.7-8.9,33.7
				c-0.2,119.5-0.1,239.1-0.2,358.6c0,20.4-0.4,41.6-28,43.7c-23.9,1.9-33.8-11.4-33.7-34.5c0.2-66.8,0.2-133.7-0.1-200.5
				C408.5,469.2,412.8,459.1,403.6,451.4z"/>
			<path class="st5" d="M455.8,137.5c-0.6,28.7-24.1,51.7-52.6,51.4c-29.8-0.3-52.5-24.8-51.3-55.3c1.2-29.3,24.2-50.6,53.7-49.5
				C434.2,85.1,456.4,108.7,455.8,137.5z"/>
		</g>
	</g>
</g>
</svg>
